HIERARCHY
ROOT Hips
{
	OFFSET 0.000000 0.000000 0.000000 
	CHANNELS 6 Xposition Yposition Zposition Zrotation Xrotation Yrotation
	JOINT Spine
	{
		OFFSET -0.000000 8.061080 0.000000 
		CHANNELS 3 Zrotation Xrotation Yrotation
		JOINT Spine1
		{
			OFFSET -0.000000 20.532700 0.000000 
			CHANNELS 3 Zrotation Xrotation Yrotation
			JOINT Neck
			{
				OFFSET -0.000000 22.498800 0.000000 
				CHANNELS 3 Zrotation Xrotation Yrotation
				JOINT Head
				{
					OFFSET -0.000000 15.237400 1.966120 
					CHANNELS 3 Zrotation Xrotation Yrotation
					End Site
					{
						OFFSET -0.000000 19.661222 0.000000 
					}
				}
			}
			JOINT LeftShoulder
			{
				OFFSET 3.894670 16.042299 -0.398189 
				CHANNELS 3 Zrotation Xrotation Yrotation
				JOINT LeftArm
				{
					OFFSET 19.709600 0.000000 0.000000 
					CHANNELS 3 Zrotation Xrotation Yrotation
					JOINT LeftForeArm
					{
						OFFSET 25.566900 0.000000 0.000000 
						CHANNELS 3 Zrotation Xrotation Yrotation
						JOINT LeftHand
						{
							OFFSET 25.401899 0.000000 0.000000 
							CHANNELS 3 Zrotation Xrotation Yrotation
							End Site
							{
								OFFSET 14.745918 0.000000 0.000000 
							}
						}
					}
				}
			}
			JOINT RightShoulder
			{
				OFFSET -3.930780 16.042299 -0.398189 
				CHANNELS 3 Zrotation Xrotation Yrotation
				JOINT RightArm
				{
					OFFSET -19.709600 0.000000 0.000000 
					CHANNELS 3 Zrotation Xrotation Yrotation
					JOINT RightForeArm
					{
						OFFSET -25.566900 0.000000 0.000000 
						CHANNELS 3 Zrotation Xrotation Yrotation
						JOINT RightHand
						{
							OFFSET -25.401899 0.000000 0.000000 
							CHANNELS 3 Zrotation Xrotation Yrotation
							End Site
							{
								OFFSET -14.745918 0.000000 0.000000 
							}
						}
					}
				}
			}
		}
	}
	JOINT LeftUpLeg
	{
		OFFSET 9.830590 0.000000 0.000000 
		CHANNELS 3 Zrotation Xrotation Yrotation
		JOINT LeftLeg
		{
			OFFSET -0.000000 -46.474800 0.000000 
			CHANNELS 3 Zrotation Xrotation Yrotation
			JOINT LeftFoot
			{
				OFFSET -0.000000 -30.290499 0.000000 
				CHANNELS 3 Zrotation Xrotation Yrotation
				JOINT LeftToeBase
				{
					OFFSET -0.000000 -6.389880 14.745900 
					CHANNELS 3 Zrotation Xrotation Yrotation
					End Site
					{
						OFFSET -0.000000 0.000000 3.932244 
					}
				}
			}
		}
	}
	JOINT RightUpLeg
	{
		OFFSET -9.830590 0.000000 0.000000 
		CHANNELS 3 Zrotation Xrotation Yrotation
		JOINT RightLeg
		{
			OFFSET -0.000000 -46.474800 0.000000 
			CHANNELS 3 Zrotation Xrotation Yrotation
			JOINT RightFoot
			{
				OFFSET -0.000000 -30.290499 0.000000 
				CHANNELS 3 Zrotation Xrotation Yrotation
				JOINT RightToeBase
				{
					OFFSET -0.000000 -6.389880 14.745900 
					CHANNELS 3 Zrotation Xrotation Yrotation
					End Site
					{
						OFFSET -0.000000 0.000000 3.932244 
					}
				}
			}
		}
	}
}
MOTION
Frames: 18
Frame Time: 0.010000
0.000000 87.979889 0.000000 -0.807059 9.351565 7.451901 -1.631586 -14.021819 -2.053373 1.205724 3.273135 -0.649365 0.293818 1.262388 -5.258148 1.680213 10.634821 -5.756363 6.255587 8.168277 -6.694672 -64.551682 37.131599 -31.275291 -11.212301 -3.878606 -4.758192 6.140248 -4.075428 5.021111 -9.290171 9.198596 -7.364277 36.442795 60.572235 56.122280 4.280820 -14.001774 8.212564 -7.193488 -14.158673 -2.322117 4.807250 -1.769348 -0.517358 1.041246 -8.932118 -8.824936 -4.147995 7.713085 5.198335 0.000000 0.000000 0.000000 -6.412812 -4.315734 -2.345259 2.264809 7.935874 -0.542863 6.198164 -6.886234 -2.858303 0.000000 0.000000 0.000000 
0.000339 87.979156 -0.001678 -0.806705 9.351432 7.450969 -1.636644 -14.026459 -2.056679 1.211704 3.275532 -0.650371 0.291476 1.264735 -5.258739 1.681429 10.629236 -5.757483 6.253875 8.175385 -6.689267 -64.546982 37.134182 -31.282017 -11.212440 -3.878623 -4.757365 6.141123 -4.075412 5.019794 -9.289148 9.199351 -7.365833 36.449028 60.570492 56.115612 4.280454 -14.000559 8.209885 -7.191052 -14.157740 -2.316462 4.806525 -1.773053 -0.514753 1.041246 -8.932118 -8.824936 -4.147995 7.713085 5.198335 0.000000 0.000000 0.000000 -6.416447 -4.322895 -2.345288 2.268476 7.912941 -0.537701 6.198164 -6.886234 -2.858303 0.000000 0.000000 0.000000 
0.000679 87.978424 -0.003372 -0.806383 9.351290 7.450040 -1.641620 -14.031165 -2.059930 1.217742 3.277853 -0.651441 0.292508 1.267296 -5.259739 1.676222 10.623135 -5.757140 6.251977 8.182852 -6.683982 -64.541977 37.136681 -31.289038 -11.212490 -3.878756 -4.756433 6.141907 -4.075498 5.018398 -9.288321 9.200452 -7.367191 36.456017 60.568245 56.108482 4.280191 -13.999150 8.207166 -7.188667 -14.156590 -2.310843 4.805837 -1.775285 -0.523877 1.041246 -8.932118 -8.824936 -4.147995 7.713085 5.198335 0.000000 0.000000 0.000000 -6.412857 -4.306190 -2.344872 2.217850 8.026939 -0.573061 6.198164 -6.886234 -2.858303 0.000000 0.000000 0.000000 
0.001035 87.977699 -0.005089 -0.806044 9.351240 7.449070 -1.646768 -14.035863 -2.063163 1.223813 3.280296 -0.652525 0.287207 1.269834 -5.259925 1.682994 10.617665 -5.759509 6.250373 8.189868 -6.678496 -64.537506 37.139351 -31.295837 -11.212438 -3.878790 -4.755421 6.142696 -4.075461 5.017048 -9.287167 9.201178 -7.368810 36.461662 60.566502 56.102177 4.279942 -13.998005 8.204624 -7.186203 -14.155732 -2.305242 4.805076 -1.779363 -0.519304 1.041246 -8.932118 -8.824936 -4.147995 7.713085 5.198335 0.000000 0.000000 0.000000 -6.412429 -4.320056 -2.344670 2.321480 7.902932 -0.519989 6.198164 -6.886234 -2.858303 0.000000 0.000000 0.000000 
0.001406 87.976974 -0.006828 -0.805737 9.351119 7.448076 -1.651716 -14.040545 -2.066364 1.229852 3.282630 -0.653570 0.287619 1.272291 -5.260886 1.678973 10.611682 -5.759472 6.248470 8.196943 -6.673315 -64.532799 37.141918 -31.302347 -11.212520 -3.878897 -4.754652 6.143506 -4.075533 5.015721 -9.286385 9.202154 -7.370250 36.468296 60.564514 56.095409 4.279653 -13.996724 8.201900 -7.183767 -14.154706 -2.299688 4.804391 -1.782050 -0.525157 1.041246 -8.932118 -8.824936 -4.147995 7.713085 5.198335 0.000000 0.000000 0.000000 -6.415924 -4.310357 -2.344744 2.216460 8.031166 -0.574225 6.198164 -6.886234 -2.858303 0.000000 0.000000 0.000000 
0.001807 87.976242 -0.008564 -0.805400 9.350854 7.447045 -1.656658 -14.045076 -2.069602 1.235819 3.284990 -0.654551 0.286561 1.274739 -5.261581 1.677855 10.605895 -5.760016 6.246655 8.204043 -6.668086 -64.528084 37.144402 -31.308977 -11.212614 -3.878991 -4.753757 6.144300 -4.075578 5.014331 -9.285487 9.203054 -7.371667 36.474949 60.562534 56.088470 4.279482 -13.995426 8.199310 -7.181328 -14.153687 -2.294238 4.803662 -1.784852 -0.528887 1.041246 -8.932118 -8.824936 -4.147995 7.713085 5.198335 0.000000 0.000000 0.000000 -6.420858 -4.330732 -2.344910 2.289474 7.907815 -0.530480 6.198164 -6.886234 -2.858303 0.000000 0.000000 0.000000 
0.002242 87.975533 -0.010353 -0.805059 9.350656 7.445946 -1.661578 -14.049783 -2.072713 1.241772 3.287496 -0.655572 0.285337 1.277185 -5.262264 1.677106 10.600082 -5.760639 6.244859 8.210878 -6.662962 -64.523651 37.146912 -31.315248 -11.212694 -3.879065 -4.752924 6.145174 -4.075631 5.012982 -9.284610 9.203926 -7.373138 36.481110 60.560749 56.082066 4.279226 -13.994305 8.196654 -7.178850 -14.152833 -2.288867 4.802907 -1.788122 -0.529588 1.041246 -8.932118 -8.824936 -4.147995 7.713085 5.198335 0.000000 0.000000 0.000000 -6.418890 -4.314480 -2.344499 2.219199 8.033082 -0.573744 6.198164 -6.886234 -2.858303 0.000000 0.000000 0.000000 
0.002705 87.974815 -0.012196 -0.804785 9.350513 7.444791 -1.666419 -14.054408 -2.075775 1.247775 3.289784 -0.656601 0.284910 1.279711 -5.263021 1.674853 10.594131 -5.760901 6.242960 8.217802 -6.657825 -64.519081 37.149479 -31.321659 -11.212671 -3.879212 -4.751993 6.145906 -4.075729 5.011600 -9.283842 9.204932 -7.374557 36.487320 60.558949 56.075737 4.278964 -13.993169 8.193992 -7.176264 -14.151948 -2.283573 4.802180 -1.790339 -0.539569 1.041246 -8.932118 -8.824936 -4.147995 7.713085 5.198335 0.000000 0.000000 0.000000 -6.418468 -4.329169 -2.344220 2.328418 7.904929 -0.518257 6.198164 -6.886234 -2.858303 0.000000 0.000000 0.000000 
0.003220 87.974113 -0.014042 -0.804469 9.350089 7.443582 -1.671193 -14.058888 -2.078784 1.253595 3.292354 -0.657602 0.282532 1.282072 -5.263503 1.676535 10.588550 -5.762016 6.241218 8.224367 -6.652778 -64.514832 37.151909 -31.327648 -11.212811 -3.879270 -4.751184 6.146810 -4.075746 5.010275 -9.282839 9.205726 -7.376047 36.493145 60.557224 56.069553 4.278843 -13.992102 8.191446 -7.173661 -14.151144 -2.278399 4.801432 -1.792664 -0.546236 1.041246 -8.932118 -8.824936 -4.147995 7.713085 5.198335 0.000000 0.000000 0.000000 -6.421800 -4.318582 -2.344196 2.221121 8.036261 -0.573730 6.198164 -6.886234 -2.858303 0.000000 0.000000 0.000000 
0.003782 87.973412 -0.015953 -0.804185 9.349719 7.442287 -1.675917 -14.063379 -2.081783 1.259525 3.294831 -0.658540 0.281948 1.284424 -5.264200 1.674752 10.582766 -5.762349 6.239316 8.231020 -6.647742 -64.510414 37.154343 -31.333853 -11.212852 -3.879400 -4.750214 6.147558 -4.075828 5.008858 -9.282089 9.206572 -7.377402 36.499249 60.555611 56.063316 4.278666 -13.991106 8.188824 -7.171045 -14.150408 -2.273365 4.800632 -1.796866 -0.538981 1.041246 -8.932118 -8.824936 -4.147995 7.713085 5.198335 0.000000 0.000000 0.000000 -6.427002 -4.339720 -2.344207 2.293344 7.906057 -0.529005 6.198164 -6.886234 -2.858303 0.000000 0.000000 0.000000 
0.004400 87.972733 -0.017941 -0.803907 9.349362 7.440895 -1.680534 -14.067835 -2.084610 1.265279 3.297300 -0.659521 0.279567 1.286688 -5.264643 1.676593 10.577301 -5.763470 6.237585 8.237393 -6.642724 -64.506310 37.156685 -31.339687 -11.213058 -3.879426 -4.749401 6.148417 -4.075803 5.007567 -9.281255 9.207380 -7.378894 36.504917 60.554089 56.057541 4.278600 -13.990157 8.186287 -7.168358 -14.149707 -2.268485 4.799867 -1.798280 -0.553875 1.041246 -8.932118 -8.824936 -4.147995 7.713085 5.198335 0.000000 0.000000 0.000000 -6.424787 -4.323086 -2.343679 2.222465 8.030648 -0.572334 6.198164 -6.886234 -2.858303 0.000000 0.000000 0.000000 
0.005076 87.972038 -0.019947 -0.803651 9.348772 7.439418 -1.685002 -14.072134 -2.087454 1.270959 3.299808 -0.660370 0.279070 1.289076 -5.265324 1.675068 10.571494 -5.763816 6.235739 8.243502 -6.638020 -64.502350 37.159065 -31.344990 -11.213158 -3.879572 -4.748641 6.149238 -4.075921 5.006205 -9.280478 9.208255 -7.380288 36.510803 60.552464 56.051563 4.278629 -13.989190 8.183876 -7.165627 -14.148975 -2.263797 4.799085 -1.801931 -0.549444 1.041246 -8.932118 -8.824936 -4.147995 7.713085 5.198335 0.000000 0.000000 0.000000 -6.430008 -4.344201 -2.343725 2.297368 7.907444 -0.528040 6.198164 -6.886234 -2.858303 0.000000 0.000000 0.000000 
0.005820 87.971367 -0.022041 -0.803405 9.348226 7.437833 -1.689466 -14.076471 -2.090178 1.276686 3.302385 -0.661256 0.276835 1.291286 -5.265712 1.676840 10.566112 -5.764868 6.233950 8.249723 -6.633063 -64.498283 37.161350 -31.350826 -11.213358 -3.879636 -4.747652 6.150044 -4.075932 5.004830 -9.279649 9.209018 -7.381728 36.516258 60.551117 56.046009 4.278635 -13.988368 8.181410 -7.162871 -14.148406 -2.259253 4.798264 -1.804584 -0.553680 1.041246 -8.932118 -8.824936 -4.147995 7.713085 5.198335 0.000000 0.000000 0.000000 -6.427603 -4.327406 -2.343039 2.232069 8.036235 -0.570445 6.198164 -6.886234 -2.858303 0.000000 0.000000 0.000000 
0.006630 87.970703 -0.024216 -0.803204 9.347647 7.436139 -1.693818 -14.080696 -2.092801 1.282480 3.304799 -0.662137 0.276303 1.293603 -5.266292 1.675400 10.560362 -5.765121 6.231965 8.255592 -6.628465 -64.494484 37.163605 -31.355885 -11.213582 -3.879778 -4.746834 6.150960 -4.076044 5.003469 -9.279051 9.209918 -7.383051 36.521744 60.549721 56.040585 4.278675 -13.987603 8.178864 -7.159996 -14.147882 -2.254777 4.797470 -1.806487 -0.563850 1.041246 -8.932118 -8.824936 -4.147995 7.713085 5.198335 0.000000 0.000000 0.000000 -6.432970 -4.348243 -2.342974 2.299346 7.913261 -0.528477 6.198164 -6.886234 -2.858303 0.000000 0.000000 0.000000 
0.007527 87.970047 -0.026440 -0.802953 9.346858 7.434325 -1.698029 -14.084764 -2.095291 1.287972 3.307363 -0.662972 0.274404 1.295811 -5.266651 1.676964 10.554964 -5.766031 6.230238 8.261238 -6.623890 -64.490891 37.165829 -31.360855 -11.213795 -3.879895 -4.746012 6.151804 -4.076110 5.002141 -9.278312 9.210667 -7.384410 36.527069 60.548534 56.035282 4.278746 -13.986920 8.176485 -7.157091 -14.147426 -2.250605 4.796579 -1.809203 -0.566115 1.041246 -8.932118 -8.824936 -4.147995 7.713085 5.198335 0.000000 0.000000 0.000000 -6.435393 -4.351466 -2.342696 2.297618 7.917717 -0.529787 6.198164 -6.886234 -2.858303 0.000000 0.000000 0.000000 
0.008497 87.969406 -0.028751 -0.802764 9.346053 7.432394 -1.702128 -14.088913 -2.097689 1.293539 3.309995 -0.663785 0.274169 1.297969 -5.267179 1.675405 10.549418 -5.766200 6.228310 8.266711 -6.619456 -64.487335 37.168125 -31.365597 -11.213899 -3.880107 -4.745126 6.152576 -4.076283 5.000758 -9.277693 9.211494 -7.385705 36.532345 60.547302 56.030128 4.278950 -13.986276 8.174104 -7.154199 -14.147000 -2.246583 4.795688 -1.812580 -0.563529 1.041246 -8.932118 -8.824936 -4.147995 7.713085 5.198335 0.000000 0.000000 0.000000 -6.432109 -4.333874 -2.341722 2.235518 8.034264 -0.569063 6.198164 -6.886234 -2.858303 0.000000 0.000000 0.000000 
0.009558 87.968773 -0.031132 -0.802572 9.345111 7.430341 -1.706198 -14.092894 -2.099999 1.299197 3.312541 -0.664594 0.273969 1.300117 -5.267664 1.673768 10.544025 -5.766292 6.226227 8.271977 -6.615260 -64.483955 37.170212 -31.369854 -11.214115 -3.880289 -4.744356 6.153420 -4.076445 4.999411 -9.277162 9.212376 -7.386892 36.537491 60.546238 56.025181 4.279040 -13.985751 8.171629 -7.151106 -14.146700 -2.242691 4.794847 -1.815149 -0.566018 1.041246 -8.932118 -8.824936 -4.147995 7.713085 5.198335 0.000000 0.000000 0.000000 -6.437162 -4.354479 -2.341543 2.308600 7.911719 -0.525421 6.198164 -6.886234 -2.858303 0.000000 0.000000 0.000000 
0.010702 87.968155 -0.033615 -0.802430 9.344211 7.428150 -1.710006 -14.096914 -2.102239 1.304494 3.315203 -0.665253 0.272583 1.302113 -5.267973 1.674836 10.538843 -5.766963 6.224445 8.277022 -6.610963 -64.480675 37.172363 -31.374146 -11.214378 -3.880471 -4.743575 6.154220 -4.076579 4.998067 -9.276509 9.213103 -7.388195 36.542645 60.545227 56.020260 4.279317 -13.985184 8.169269 -7.148031 -14.146354 -2.239022 4.793942 -1.816419 -0.580015 1.041246 -8.932118 -8.824936 -4.147995 7.713085 5.198335 0.000000 0.000000 0.000000 -6.434852 -4.337375 -2.340546 2.237685 8.038673 -0.569195 6.198164 -6.886234 -2.858303 0.000000 0.000000 0.000000 
